HIERARCHY
ROOT Hips
{
	OFFSET 0.000000 0.000000 0.000000
	CHANNELS 6 Xposition Yposition Zposition Zrotation Yrotation Xrotation 
	JOINT LeftUpLeg_virtual
	{
		OFFSET 0.000000 0.000000 0.000000
		CHANNELS 3 Zrotation Yrotation Xrotation
		JOINT LeftUpLeg
		{
			OFFSET 10.205400 -3.823500 0.155100
			CHANNELS 3 Zrotation Yrotation Xrotation
			JOINT LeftLeg
			{
				OFFSET 0.708757 -12.982077 0.567790
				CHANNELS 3 Zrotation Yrotation Xrotation
				JOINT LeftFoot
				{
					OFFSET -0.708756 -10.717838 -2.184338
					CHANNELS 3 Zrotation Yrotation Xrotation
					JOINT LeftToeBase
					{
						OFFSET 0.108149 -7.191104 7.560241
						CHANNELS 3 Zrotation Yrotation Xrotation
						End Site
						{
							OFFSET 0.000000 0.000000 0.000000
						}
					}
				}
			}
		}
	}
	JOINT RightUpLeg_virtual
	{
		OFFSET 0.000000 0.000000 0.000000
		CHANNELS 3 Zrotation Yrotation Xrotation
		JOINT RightUpLeg
		{
			OFFSET -10.205400 -3.823500 0.005500
			CHANNELS 3 Zrotation Yrotation Xrotation
			JOINT RightLeg
			{
				OFFSET -0.708756 -12.982134 0.610632
				CHANNELS 3 Zrotation Yrotation Xrotation
				JOINT RightFoot
				{
					OFFSET 0.708754 -10.717769 -1.945823
					CHANNELS 3 Zrotation Yrotation Xrotation
					JOINT RightToeBase
					{
						OFFSET -0.108140 -7.191069 7.372968
						CHANNELS 3 Zrotation Yrotation Xrotation
						End Site
						{
							OFFSET 0.000000 0.000000 0.000000
						}
					}
				}
			}
		}
	}
	JOINT Spine_virtual
	{
		OFFSET 0.000000 0.000000 0.000000
		CHANNELS 3 Zrotation Yrotation Xrotation
		JOINT Spine
		{
			OFFSET 0.000000 6.876099 0.125700
			CHANNELS 3 Zrotation Yrotation Xrotation
			JOINT Spine1
			{
				OFFSET 0.000000 8.022060 0.146608
				CHANNELS 3 Zrotation Yrotation Xrotation
				JOINT Spine2
				{
					OFFSET 0.000000 9.168068 0.167552
					CHANNELS 3 Zrotation Yrotation Xrotation
					JOINT Neck_virtual
					{
						OFFSET 0.000000 0.000000 0.000000
						CHANNELS 3 Zrotation Yrotation Xrotation
						JOINT Neck
						{
							OFFSET 0.000000 10.314075 0.188496
							CHANNELS 3 Zrotation Yrotation Xrotation
							JOINT Head
							{
								OFFSET 0.000000 7.643700 -2.377400
								CHANNELS 3 Zrotation Yrotation Xrotation
								End Site
								{
									OFFSET 0.000000 0.000000 0.000000
								}
							}
						}
					}
					JOINT LeftShoulder_virtual
					{
						OFFSET 0.000000 0.000000 0.000000
						CHANNELS 3 Zrotation Yrotation Xrotation
						JOINT LeftShoulder
						{
							OFFSET 4.392200 8.824978 0.174984
							CHANNELS 3 Zrotation Yrotation Xrotation
							JOINT LeftArm
							{
								OFFSET 8.771219 -2.981674 -0.026999
								CHANNELS 3 Zrotation Yrotation Xrotation
								JOINT LeftForeArm
								{
									OFFSET 8.512804 0.000000 -0.000000
									CHANNELS 3 Zrotation Yrotation Xrotation
									JOINT LeftHand
									{
										OFFSET 18.484802 0.000000 -0.000000
										CHANNELS 3 Zrotation Yrotation Xrotation
										End Site
										{
											OFFSET 0.000000 0.000000 0.000000
										}
									}
								}
							}
						}
					}
					JOINT RightShoulder_virtual
					{
						OFFSET 0.000000 0.000000 0.000000
						CHANNELS 3 Zrotation Yrotation Xrotation
						JOINT RightShoulder
						{
							OFFSET -4.392200 8.824993 0.141379
							CHANNELS 3 Zrotation Yrotation Xrotation
							JOINT RightArm
							{
								OFFSET -8.771282 -2.981682 -0.094208
								CHANNELS 3 Zrotation Yrotation Xrotation
								JOINT RightForeArm
								{
									OFFSET -8.494598 0.000000 0.000000
									CHANNELS 3 Zrotation Yrotation Xrotation
									JOINT RightHand
									{
										OFFSET -18.483803 0.000000 0.000001
										CHANNELS 3 Zrotation Yrotation Xrotation
										End Site
										{
											OFFSET 0.000000 0.000000 0.000000
										}
									}
								}
							}
						}
					}
				}
			}
		}
	}
}
MOTION
Frames: 6
Frame Time: 0.033333
27.736500 36.033501 -64.154709 -179.973258 -32.545674 -179.822352 -2.492634 -1.898929 11.682239 -10.512508 -3.938744 -22.149330 14.962984 9.551777 21.020247 -2.152529 -3.271367 7.439613 0.000000 0.000000 0.000000 0.872839 1.093417 11.398338 -6.188035 -6.726448 -24.779376 -4.471417 4.996934 50.582988 10.356444 8.935177 13.803481 0.000000 0.000000 0.000000 -1.552396 2.184863 -5.348206 0.728758 3.047185 -9.521843 -2.818757 -2.998497 10.654237 0.008174 0.058329 0.037760 -3.310933 -0.686668 14.989144 -10.586638 5.333098 16.719762 0.000000 0.000000 0.000000 -1.097362 -0.689352 11.680149 6.874835 -11.821810 -3.430570 -55.622158 -17.720306 65.919563 -177.911060 -69.551427 -162.053055 0.000000 0.000000 0.000000 -5.495625 0.869029 11.671496 32.793395 7.519597 -1.244556 45.172160 -13.668429 11.080549 -0.622597 41.655005 -4.236695 0.000000 0.000000 0.000000 
27.231529 36.089382 -64.671829 -179.929053 -34.608650 -179.906076 -2.791666 -1.308469 11.300450 -10.377720 -5.258420 -20.545602 14.857880 8.536533 20.921501 -2.377687 -2.990813 6.493988 0.000000 0.000000 0.000000 0.734809 1.476161 11.206560 -5.514617 -5.460951 -28.234144 -4.573522 5.270664 48.616713 10.243759 8.996061 14.188269 0.000000 0.000000 0.000000 -1.767143 2.498352 -5.480246 0.494126 2.576052 -8.987293 -2.700747 -3.061910 10.785162 0.031683 0.053938 0.071175 -3.166864 -0.665084 15.108838 -10.451825 5.182706 16.577375 0.000000 0.000000 0.000000 -0.983083 -0.746659 11.803720 7.087070 -12.136888 -3.409748 -55.878420 -17.738365 65.807848 -178.152876 -69.566296 -162.273000 0.000000 0.000000 0.000000 -5.369554 0.710519 11.777966 32.770636 6.809537 -1.784162 45.368644 -16.089878 11.284306 -0.097052 41.284279 -4.001315 0.000000 0.000000 0.000000 
26.732141 36.111111 -65.143646 179.938342 -36.871393 -179.964679 -3.115478 -0.635226 10.996359 -10.231363 -6.683782 -19.035541 14.798090 7.859810 20.827004 -2.748603 -2.944603 5.769470 0.000000 0.000000 0.000000 0.527310 1.987342 11.017725 -4.841851 -3.888571 -31.136486 -5.136899 5.489711 44.455823 10.541300 9.114488 15.072588 0.000000 0.000000 0.000000 -1.978260 2.629747 -5.384874 0.290679 2.232704 -8.447178 -2.581178 -3.015161 10.891244 -0.006658 -0.080815 0.016694 -3.035948 -0.843899 15.197246 -10.249036 5.033870 16.336187 0.000000 0.000000 0.000000 -0.868426 -0.744020 11.948881 7.172731 -12.228372 -3.294596 -56.192236 -17.708112 65.661204 -178.026517 -69.662260 -162.813924 0.000000 0.000000 0.000000 -5.175400 0.836109 11.931721 32.736892 6.321846 -2.073146 45.491696 -18.061115 11.955206 0.227472 40.799551 -3.969320 0.000000 0.000000 0.000000 
26.218754 36.091484 -65.587547 179.919778 -39.178863 -179.945445 -3.219126 -0.047290 10.728174 -10.164547 -8.355824 -17.630409 14.699631 7.775565 20.689218 -3.076034 -2.960890 5.134684 0.000000 0.000000 0.000000 0.462424 2.509671 10.791991 -4.368805 -2.097561 -33.519529 -5.901142 5.379863 38.806512 11.056441 8.827796 16.522224 0.000000 0.000000 0.000000 -2.117016 3.027736 -5.246067 0.209069 1.803791 -8.069014 -2.456545 -3.127821 10.946191 0.025936 0.034866 0.014295 -2.881848 -0.868113 15.225880 -10.087033 4.845936 16.167804 0.000000 0.000000 0.000000 -0.745758 -0.786687 12.073976 7.288300 -12.467809 -3.213757 -56.310907 -17.817360 65.275831 -177.782188 -69.880628 -163.377032 0.000000 0.000000 0.000000 -5.051798 0.765391 12.016935 32.718966 5.913907 -2.418571 45.525280 -19.941664 12.704461 0.671448 40.407467 -3.857275 0.000000 0.000000 0.000000 
25.704586 36.045490 -66.043243 179.997355 -41.415692 179.871461 -3.136802 0.430875 10.691750 -10.240291 -9.914973 -16.250606 14.692452 7.529114 20.522545 -3.347248 -2.975243 4.385384 0.000000 0.000000 0.000000 0.506893 2.882515 10.675791 -3.960503 -0.189996 -35.271872 -6.802351 5.201437 32.545937 11.746510 8.353145 18.318880 0.000000 0.000000 0.000000 -2.108082 3.314944 -4.886557 0.283751 1.489834 -7.761341 -2.351505 -3.214080 11.020538 -0.012865 0.010813 0.001944 -2.742638 -0.952945 15.233528 -9.997400 4.748898 16.070496 0.000000 0.000000 0.000000 -0.642309 -0.818025 12.181976 7.256844 -12.581062 -2.961103 -56.224717 -18.026189 64.672575 -177.763186 -70.114002 -163.590107 0.000000 0.000000 0.000000 -4.922128 0.765339 12.093487 32.756631 5.681384 -2.521324 45.605009 -21.493442 13.218130 0.882844 40.210673 -3.955196 0.000000 0.000000 0.000000 
25.210005 35.989681 -66.545471 179.985020 -43.466754 179.884220 -3.190080 0.735872 10.687443 -10.170610 -11.521277 -14.994403 14.677928 6.849005 20.644530 -3.436764 -2.643175 3.333556 0.000000 0.000000 0.000000 0.543651 3.199349 10.581922 -3.541621 1.786792 -36.677303 -7.669224 4.787715 26.557326 12.470638 7.870104 20.197276 0.000000 0.000000 0.000000 -2.058985 3.558138 -4.501053 0.432286 1.214776 -7.701447 -2.288105 -3.329363 10.995993 -0.034154 -0.020678 -0.018653 -2.644224 -1.069103 15.297243 -9.993184 4.609289 16.009439 0.000000 0.000000 0.000000 -0.530574 -0.910540 12.294630 7.195751 -12.561295 -2.752441 -55.903527 -18.193394 63.795989 -176.964273 -70.450164 -164.471652 0.000000 0.000000 0.000000 -4.835087 0.654191 12.265118 32.840086 5.475068 -2.688221 45.718790 -22.945961 13.155155 0.989190 40.264430 -4.130671 0.000000 0.000000 0.000000 
